<svg width="190" height="190" viewBox="0 0 190 190" fill="none" xmlns="http://www.w3.org/2000/svg">
<g clip-path="url(#clip0_52_10)">
<path d="M40.5865 118.472L89.4162 153.958V189.783C71.2793 188.714 53.832 182.454 39.1531 171.748C24.4742 161.042 13.1825 146.341 6.62329 129.398L40.6107 118.472H40.5865ZM149.414 118.472L183.401 129.398C176.829 146.333 165.534 161.025 150.858 171.729C136.182 182.433 118.741 188.699 100.608 189.783V153.958L149.438 118.472H149.414Z" fill="black"/>
<path d="M34.978 21.6346L55.936 50.594L37.3953 107.691L3.19033 118.69C1.34558 111.474 0.355744 104.066 0.241214 96.6196L0.217041 95.0484C0.217041 65.4605 13.754 39.0393 34.978 21.6346ZM155.022 21.6346C169.042 33.0818 179.489 48.3078 185.122 65.5091C190.756 82.7103 191.342 101.166 186.809 118.69L152.604 107.691L134.088 50.6424L155.046 21.683L155.022 21.6346Z" fill="black"/>
<path d="M94.9999 0.217227C113.059 0.189885 130.746 5.34994 145.957 15.0837L124.902 44.1156H65.0736L44.043 15.0595C58.8055 5.61847 75.9073 0.478747 93.4286 0.217227L94.9999 0.193054V0.217227Z" fill="black"/>
</g>
<defs>
<clipPath id="clip0_52_10">
<rect width="190" height="190" fill="white"/>
</clipPath>
</defs>
</svg>
